<svg width="38" height="42" viewBox="0 0 38 42" fill="none" xmlns="http://www.w3.org/2000/svg">
<path d="M37.4916 28.9061C37.6815 29.2356 37.7331 29.6269 37.6351 29.9943C37.5371 30.3617 37.2975 30.6753 36.9688 30.8665L19.7188 40.929C19.4989 41.0572 19.2491 41.1247 18.9946 41.1247C18.7402 41.1247 18.4903 41.0572 18.2705 40.929L1.02047 30.8665C0.696481 30.6718 0.462212 30.3573 0.368383 29.9912C0.274554 29.625 0.328716 29.2367 0.519142 28.9102C0.709568 28.5836 1.02093 28.3453 1.38582 28.2466C1.75072 28.148 2.13977 28.1971 2.46875 28.3832L19 38.0235L35.5312 28.3832C35.8607 28.1934 36.252 28.1418 36.6194 28.2398C36.9869 28.3378 37.3005 28.5774 37.4916 28.9061ZM35.5312 19.7582L19 29.3985L2.46875 19.7582C2.14144 19.5953 1.76433 19.5631 1.41417 19.6684C1.06402 19.7737 0.767138 20.0084 0.583959 20.3249C0.40078 20.6413 0.345069 21.0157 0.428166 21.3717C0.511264 21.7278 0.726923 22.0388 1.03125 22.2415L18.2812 32.304C18.5011 32.4322 18.7509 32.4997 19.0054 32.4997C19.2598 32.4997 19.5097 32.4322 19.7295 32.304L36.9795 22.2415C37.1452 22.1478 37.2906 22.022 37.4073 21.8717C37.524 21.7213 37.6097 21.5492 37.6594 21.3654C37.709 21.1817 37.7217 20.9899 37.6967 20.8012C37.6716 20.6124 37.6093 20.4306 37.5134 20.2662C37.4175 20.1017 37.2899 19.958 37.138 19.8432C36.9861 19.7285 36.8129 19.6451 36.6285 19.5979C36.4441 19.5506 36.2522 19.5404 36.0638 19.568C35.8754 19.5955 35.6944 19.6602 35.5312 19.7582ZM0.3125 12.3749C0.313073 12.1231 0.379766 11.8759 0.505905 11.658C0.632043 11.4401 0.813202 11.2591 1.03125 11.1332L18.2812 1.07072C18.5011 0.942538 18.7509 0.875 19.0054 0.875C19.2598 0.875 19.5097 0.942538 19.7295 1.07072L36.9795 11.1332C37.1965 11.2598 37.3766 11.4411 37.5017 11.6589C37.6268 11.8768 37.6926 12.1236 37.6926 12.3749C37.6926 12.6261 37.6268 12.8729 37.5017 13.0908C37.3766 13.3086 37.1965 13.4899 36.9795 13.6165L19.7295 23.679C19.5097 23.8072 19.2598 23.8747 19.0054 23.8747C18.7509 23.8747 18.5011 23.8072 18.2812 23.679L1.03125 13.6165C0.813202 13.4906 0.632043 13.3097 0.505905 13.0918C0.379766 12.8738 0.313073 12.6266 0.3125 12.3749ZM4.60344 12.3749L19 20.7735L33.3966 12.3749L19 3.97626L4.60344 12.3749Z" fill="#0038FF"/>
</svg>
