<svg width="46" height="46" viewBox="0 0 46 46" fill="none" xmlns="http://www.w3.org/2000/svg">
<path d="M43.125 18.6875H41.1844L36.1927 7.45703C35.9668 6.94892 35.5984 6.51723 35.1321 6.21425C34.6658 5.91127 34.1217 5.75001 33.5656 5.75H12.4344C11.8783 5.75001 11.3342 5.91127 10.8679 6.21425C10.4016 6.51723 10.0332 6.94892 9.80734 7.45703L4.81562 18.6875H2.875C2.49375 18.6875 2.12812 18.839 1.85853 19.1085C1.58895 19.3781 1.4375 19.7438 1.4375 20.125C1.4375 20.5062 1.58895 20.8719 1.85853 21.1415C2.12812 21.411 2.49375 21.5625 2.875 21.5625H4.3125V35.9375C4.3125 36.7 4.6154 37.4313 5.15457 37.9704C5.69374 38.5096 6.425 38.8125 7.1875 38.8125H11.5C12.2625 38.8125 12.9938 38.5096 13.5329 37.9704C14.0721 37.4313 14.375 36.7 14.375 35.9375V33.0625H31.625V35.9375C31.625 36.7 31.9279 37.4313 32.4671 37.9704C33.0062 38.5096 33.7375 38.8125 34.5 38.8125H38.8125C39.575 38.8125 40.3063 38.5096 40.8454 37.9704C41.3846 37.4313 41.6875 36.7 41.6875 35.9375V21.5625H43.125C43.5062 21.5625 43.8719 21.411 44.1415 21.1415C44.411 20.8719 44.5625 20.5062 44.5625 20.125C44.5625 19.7438 44.411 19.3781 44.1415 19.1085C43.8719 18.839 43.5062 18.6875 43.125 18.6875ZM12.4344 8.625H33.5656L38.038 18.6875H7.96195L12.4344 8.625ZM11.5 35.9375H7.1875V33.0625H11.5V35.9375ZM34.5 35.9375V33.0625H38.8125V35.9375H34.5ZM38.8125 30.1875H7.1875V21.5625H38.8125V30.1875ZM10.0625 25.875C10.0625 25.4938 10.214 25.1281 10.4835 24.8585C10.7531 24.5889 11.1188 24.4375 11.5 24.4375H14.375C14.7562 24.4375 15.1219 24.5889 15.3915 24.8585C15.661 25.1281 15.8125 25.4938 15.8125 25.875C15.8125 26.2562 15.661 26.6219 15.3915 26.8915C15.1219 27.1611 14.7562 27.3125 14.375 27.3125H11.5C11.1188 27.3125 10.7531 27.1611 10.4835 26.8915C10.214 26.6219 10.0625 26.2562 10.0625 25.875ZM30.1875 25.875C30.1875 25.4938 30.3389 25.1281 30.6085 24.8585C30.8781 24.5889 31.2438 24.4375 31.625 24.4375H34.5C34.8812 24.4375 35.2469 24.5889 35.5165 24.8585C35.786 25.1281 35.9375 25.4938 35.9375 25.875C35.9375 26.2562 35.786 26.6219 35.5165 26.8915C35.2469 27.1611 34.8812 27.3125 34.5 27.3125H31.625C31.2438 27.3125 30.8781 27.1611 30.6085 26.8915C30.3389 26.6219 30.1875 26.2562 30.1875 25.875Z" fill="#0038FF"/>
</svg>
