<svg width="44" height="44" viewBox="0 0 44 44" fill="none" xmlns="http://www.w3.org/2000/svg">
<path d="M23.5 16C23.5 15.1716 22.8284 14.5 22 14.5C21.1716 14.5 20.5 15.1716 20.5 16V20.5H16C15.1716 20.5 14.5 21.1716 14.5 22C14.5 22.8284 15.1716 23.5 16 23.5H20.5V28C20.5 28.8284 21.1716 29.5 22 29.5C22.8284 29.5 23.5 28.8284 23.5 28V23.5H28C28.8284 23.5 29.5 22.8284 29.5 22C29.5 21.1716 28.8284 20.5 28 20.5H23.5V16Z" fill="#999A98"/>
<path fill-rule="evenodd" clip-rule="evenodd" d="M22 0.5C10.1259 0.5 0.5 10.1259 0.5 22C0.5 33.8741 10.1259 43.5 22 43.5C33.8741 43.5 43.5 33.8741 43.5 22C43.5 10.1259 33.8741 0.5 22 0.5ZM3.5 22C3.5 11.7827 11.7827 3.5 22 3.5C32.2173 3.5 40.5 11.7827 40.5 22C40.5 32.2173 32.2173 40.5 22 40.5C11.7827 40.5 3.5 32.2173 3.5 22Z" fill="#999A98"/>
</svg>
