<svg width="26" height="42" viewBox="0 0 26 42" fill="none" xmlns="http://www.w3.org/2000/svg">
<path d="M17.3125 19.5625H14.4375V8.0625H15.875C17.4 8.0625 18.8625 8.6683 19.9409 9.74664C21.0192 10.825 21.625 12.2875 21.625 13.8125C21.625 14.1937 21.7764 14.5594 22.046 14.829C22.3156 15.0985 22.6813 15.25 23.0625 15.25C23.4437 15.25 23.8094 15.0985 24.079 14.829C24.3486 14.5594 24.5 14.1937 24.5 13.8125C24.4976 11.5257 23.5882 9.33332 21.9712 7.71633C20.3542 6.09935 18.1618 5.18988 15.875 5.1875H14.4375V2.3125C14.4375 1.93125 14.2861 1.56562 14.0165 1.29603C13.7469 1.02645 13.3812 0.875 13 0.875C12.6188 0.875 12.2531 1.02645 11.9835 1.29603C11.714 1.56562 11.5625 1.93125 11.5625 2.3125V5.1875H10.125C7.83751 5.1875 5.64371 6.0962 4.0262 7.7137C2.4087 9.33121 1.5 11.525 1.5 13.8125C1.5 16.1 2.4087 18.2938 4.0262 19.9113C5.64371 21.5288 7.83751 22.4375 10.125 22.4375H11.5625V33.9375H8.6875C7.16251 33.9375 5.69997 33.3317 4.62164 32.2534C3.5433 31.175 2.9375 29.7125 2.9375 28.1875C2.9375 27.8063 2.78605 27.4406 2.51647 27.171C2.24688 26.9014 1.88125 26.75 1.5 26.75C1.11875 26.75 0.753118 26.9014 0.483534 27.171C0.213951 27.4406 0.0625 27.8063 0.0625 28.1875C0.0648783 30.4743 0.974345 32.6667 2.59133 34.2837C4.20832 35.9007 6.40074 36.8101 8.6875 36.8125H11.5625V39.6875C11.5625 40.0687 11.714 40.4344 11.9835 40.704C12.2531 40.9735 12.6188 41.125 13 41.125C13.3812 41.125 13.7469 40.9735 14.0165 40.704C14.2861 40.4344 14.4375 40.0687 14.4375 39.6875V36.8125H17.3125C19.6 36.8125 21.7938 35.9038 23.4113 34.2863C25.0288 32.6688 25.9375 30.475 25.9375 28.1875C25.9375 25.9 25.0288 23.7062 23.4113 22.0887C21.7938 20.4712 19.6 19.5625 17.3125 19.5625ZM10.125 19.5625C8.60001 19.5625 7.13747 18.9567 6.05914 17.8784C4.9808 16.8 4.375 15.3375 4.375 13.8125C4.375 12.2875 4.9808 10.825 6.05914 9.74664C7.13747 8.6683 8.60001 8.0625 10.125 8.0625H11.5625V19.5625H10.125ZM17.3125 33.9375H14.4375V22.4375H17.3125C18.8375 22.4375 20.3 23.0433 21.3784 24.1216C22.4567 25.2 23.0625 26.6625 23.0625 28.1875C23.0625 29.7125 22.4567 31.175 21.3784 32.2534C20.3 33.3317 18.8375 33.9375 17.3125 33.9375Z" fill="#0038FF"/>
</svg>
