<svg width="44" height="32" viewBox="0 0 44 32" fill="none" xmlns="http://www.w3.org/2000/svg">
<path d="M32.0625 9.09461V8.09375C32.0625 3.58719 25.2649 0.1875 16.25 0.1875C7.23508 0.1875 0.4375 3.58719 0.4375 8.09375V15.2812C0.4375 19.0349 5.1543 22.0177 11.9375 22.9108V23.9062C11.9375 28.4128 18.7351 31.8125 27.75 31.8125C36.7649 31.8125 43.5625 28.4128 43.5625 23.9062V16.7188C43.5625 12.9992 38.9948 10.0128 32.0625 9.09461ZM40.6875 16.7188C40.6875 19.0942 35.1549 21.75 27.75 21.75C27.0798 21.75 26.4149 21.7266 25.7591 21.6835C29.6349 20.2712 32.0625 17.9766 32.0625 15.2812V12.0002C37.4298 12.7998 40.6875 14.9704 40.6875 16.7188ZM11.9375 19.998V15.7233C13.3674 15.9096 14.808 16.002 16.25 16C17.692 16.002 19.1326 15.9096 20.5625 15.7233V19.998C19.1347 20.209 17.6933 20.3141 16.25 20.3125C14.8067 20.3141 13.3653 20.209 11.9375 19.998ZM29.1875 12.753V15.2812C29.1875 16.7888 26.9576 18.4078 23.4375 19.3907V15.1914C25.7573 14.629 27.7213 13.7916 29.1875 12.753ZM16.25 3.0625C23.6549 3.0625 29.1875 5.71828 29.1875 8.09375C29.1875 10.4692 23.6549 13.125 16.25 13.125C8.84508 13.125 3.3125 10.4692 3.3125 8.09375C3.3125 5.71828 8.84508 3.0625 16.25 3.0625ZM3.3125 15.2812V12.753C4.77875 13.7916 6.74273 14.629 9.0625 15.1914V19.3907C5.54242 18.4078 3.3125 16.7888 3.3125 15.2812ZM14.8125 23.9062V23.157C15.2851 23.1749 15.763 23.1875 16.25 23.1875C16.9472 23.1875 17.6282 23.1641 18.2966 23.1246C19.0392 23.3904 19.7956 23.616 20.5625 23.8002V28.0157C17.0424 27.0328 14.8125 25.4138 14.8125 23.9062ZM23.4375 28.623V24.3375C24.867 24.5297 26.3077 24.6257 27.75 24.625C29.192 24.627 30.6326 24.5346 32.0625 24.3483V28.623C29.2028 29.0423 26.2972 29.0423 23.4375 28.623ZM34.9375 28.0157V23.8164C37.2573 23.254 39.2212 22.4166 40.6875 21.378V23.9062C40.6875 25.4138 38.4576 27.0328 34.9375 28.0157Z" fill="#0038FF"/>
</svg>
