<svg width="46" height="46" viewBox="0 0 46 46" fill="none" xmlns="http://www.w3.org/2000/svg">
<path d="M38.392 11.9205L31.2045 4.73297C31.0709 4.59952 30.9124 4.4937 30.7378 4.42155C30.5633 4.34941 30.3763 4.31235 30.1875 4.3125H15.8125C15.05 4.3125 14.3187 4.6154 13.7796 5.15457C13.2404 5.69374 12.9375 6.425 12.9375 7.1875V10.0625H10.0625C9.3 10.0625 8.56873 10.3654 8.02957 10.9046C7.4904 11.4437 7.1875 12.175 7.1875 12.9375V38.8125C7.1875 39.575 7.4904 40.3063 8.02957 40.8454C8.56873 41.3846 9.3 41.6875 10.0625 41.6875H30.1875C30.95 41.6875 31.6813 41.3846 32.2204 40.8454C32.7596 40.3063 33.0625 39.575 33.0625 38.8125V35.9375H35.9375C36.7 35.9375 37.4313 35.6346 37.9704 35.0954C38.5096 34.5563 38.8125 33.825 38.8125 33.0625V12.9375C38.8126 12.7487 38.7756 12.5617 38.7034 12.3872C38.6313 12.2126 38.5255 12.0541 38.392 11.9205ZM30.1875 38.8125H10.0625V12.9375H23.8427L30.1875 19.2823V34.4712C30.1875 34.482 30.1875 34.491 30.1875 34.5C30.1875 34.509 30.1875 34.518 30.1875 34.5288V38.8125ZM35.9375 33.0625H33.0625V18.6875C33.0626 18.4987 33.0256 18.3117 32.9534 18.1372C32.8813 17.9626 32.7755 17.8041 32.642 17.6705L25.4545 10.483C25.3209 10.3495 25.1624 10.2437 24.9878 10.1716C24.8133 10.0994 24.6263 10.0624 24.4375 10.0625H15.8125V7.1875H29.5927L35.9375 13.5323V33.0625ZM25.875 27.3125C25.875 27.6937 25.7236 28.0594 25.454 28.329C25.1844 28.5986 24.8187 28.75 24.4375 28.75H15.8125C15.4313 28.75 15.0656 28.5986 14.796 28.329C14.5265 28.0594 14.375 27.6937 14.375 27.3125C14.375 26.9313 14.5265 26.5656 14.796 26.296C15.0656 26.0264 15.4313 25.875 15.8125 25.875H24.4375C24.8187 25.875 25.1844 26.0264 25.454 26.296C25.7236 26.5656 25.875 26.9313 25.875 27.3125ZM25.875 33.0625C25.875 33.4437 25.7236 33.8094 25.454 34.079C25.1844 34.3486 24.8187 34.5 24.4375 34.5H15.8125C15.4313 34.5 15.0656 34.3486 14.796 34.079C14.5265 33.8094 14.375 33.4437 14.375 33.0625C14.375 32.6813 14.5265 32.3156 14.796 32.046C15.0656 31.7764 15.4313 31.625 15.8125 31.625H24.4375C24.8187 31.625 25.1844 31.7764 25.454 32.046C25.7236 32.3156 25.875 32.6813 25.875 33.0625Z" fill="#0038FF"/>
</svg>
