<svg width="12" height="12" viewBox="0 0 12 12" fill="none" xmlns="http://www.w3.org/2000/svg">
<path d="M6 0.3125C4.87512 0.3125 3.7755 0.646066 2.8402 1.27102C1.90489 1.89597 1.17591 2.78423 0.745438 3.82349C0.314964 4.86274 0.202333 6.00631 0.421786 7.10958C0.64124 8.21284 1.18292 9.22626 1.97833 10.0217C2.77374 10.8171 3.78716 11.3588 4.89043 11.5782C5.99369 11.7977 7.13726 11.685 8.17651 11.2546C9.21577 10.8241 10.104 10.0951 10.729 9.15981C11.3539 8.2245 11.6875 7.12488 11.6875 6C11.6859 4.49207 11.0862 3.04636 10.0199 1.98009C8.95365 0.913821 7.50793 0.314092 6 0.3125ZM6 10.8125C5.04818 10.8125 4.11773 10.5303 3.32632 10.0014C2.53491 9.47264 1.91808 8.72103 1.55383 7.84166C1.18959 6.9623 1.09428 5.99466 1.27997 5.06113C1.46566 4.12759 1.92401 3.27009 2.59705 2.59705C3.27009 1.92401 4.1276 1.46566 5.06113 1.27997C5.99466 1.09428 6.9623 1.18958 7.84167 1.55383C8.72104 1.91808 9.47265 2.53491 10.0014 3.32632C10.5303 4.11773 10.8125 5.04818 10.8125 6C10.8111 7.27591 10.3036 8.49915 9.40136 9.40135C8.49915 10.3036 7.27591 10.8111 6 10.8125ZM6.875 8.625C6.875 8.74103 6.82891 8.85231 6.74686 8.93436C6.66481 9.01641 6.55353 9.0625 6.4375 9.0625C6.20544 9.0625 5.98288 8.97031 5.81878 8.80622C5.65469 8.64212 5.5625 8.41956 5.5625 8.1875V6C5.44647 6 5.33519 5.95391 5.25314 5.87186C5.1711 5.78981 5.125 5.67853 5.125 5.5625C5.125 5.44647 5.1711 5.33519 5.25314 5.25314C5.33519 5.17109 5.44647 5.125 5.5625 5.125C5.79457 5.125 6.01713 5.21719 6.18122 5.38128C6.34531 5.54538 6.4375 5.76794 6.4375 6V8.1875C6.55353 8.1875 6.66481 8.23359 6.74686 8.31564C6.82891 8.39769 6.875 8.50897 6.875 8.625ZM5.125 3.59375C5.125 3.46396 5.16349 3.33708 5.2356 3.22916C5.30771 3.12124 5.4102 3.03712 5.53012 2.98745C5.65003 2.93778 5.78198 2.92479 5.90928 2.95011C6.03658 2.97543 6.15351 3.03793 6.24529 3.12971C6.33707 3.22149 6.39957 3.33842 6.42489 3.46572C6.45021 3.59302 6.43722 3.72497 6.38755 3.84489C6.33788 3.9648 6.25377 4.06729 6.14585 4.1394C6.03793 4.21151 5.91105 4.25 5.78125 4.25C5.6072 4.25 5.44028 4.18086 5.31721 4.05779C5.19414 3.93472 5.125 3.7678 5.125 3.59375Z" fill="#585C7B"/>
</svg>
