<svg width="46" height="46" viewBox="0 0 46 46" fill="none" xmlns="http://www.w3.org/2000/svg">
<path d="M15.8125 17.25C15.8125 16.8688 15.964 16.5031 16.2335 16.2335C16.5031 15.964 16.8688 15.8125 17.25 15.8125H28.75C29.1313 15.8125 29.4969 15.964 29.7665 16.2335C30.0361 16.5031 30.1875 16.8688 30.1875 17.25C30.1875 17.6312 30.0361 17.9969 29.7665 18.2665C29.4969 18.5361 29.1313 18.6875 28.75 18.6875H17.25C16.8688 18.6875 16.5031 18.5361 16.2335 18.2665C15.964 17.9969 15.8125 17.6312 15.8125 17.25ZM17.25 24.4375H28.75C29.1313 24.4375 29.4969 24.2861 29.7665 24.0165C30.0361 23.7469 30.1875 23.3813 30.1875 23C30.1875 22.6188 30.0361 22.2531 29.7665 21.9835C29.4969 21.714 29.1313 21.5625 28.75 21.5625H17.25C16.8688 21.5625 16.5031 21.714 16.2335 21.9835C15.964 22.2531 15.8125 22.6188 15.8125 23C15.8125 23.3813 15.964 23.7469 16.2335 24.0165C16.5031 24.2861 16.8688 24.4375 17.25 24.4375ZM23 27.3125H17.25C16.8688 27.3125 16.5031 27.464 16.2335 27.7335C15.964 28.0031 15.8125 28.3688 15.8125 28.75C15.8125 29.1313 15.964 29.4969 16.2335 29.7665C16.5031 30.0361 16.8688 30.1875 17.25 30.1875H23C23.3813 30.1875 23.7469 30.0361 24.0165 29.7665C24.2861 29.4969 24.4375 29.1313 24.4375 28.75C24.4375 28.3688 24.2861 28.0031 24.0165 27.7335C23.7469 27.464 23.3813 27.3125 23 27.3125ZM40.25 8.625V28.1552C40.2512 28.5329 40.1773 28.9071 40.0327 29.256C39.888 29.6049 39.6754 29.9215 39.4073 30.1875L30.1875 39.4073C29.9215 39.6754 29.6049 39.888 29.256 40.0327C28.9071 40.1773 28.5329 40.2512 28.1552 40.25H8.625C7.8625 40.25 7.13124 39.9471 6.59207 39.4079C6.0529 38.8688 5.75 38.1375 5.75 37.375V8.625C5.75 7.8625 6.0529 7.13124 6.59207 6.59207C7.13124 6.0529 7.8625 5.75 8.625 5.75H37.375C38.1375 5.75 38.8688 6.0529 39.4079 6.59207C39.9471 7.13124 40.25 7.8625 40.25 8.625ZM8.625 37.375H27.3125V28.75C27.3125 28.3688 27.464 28.0031 27.7335 27.7335C28.0031 27.464 28.3688 27.3125 28.75 27.3125H37.375V8.625H8.625V37.375ZM30.1875 30.1875V35.3445L35.3427 30.1875H30.1875Z" fill="#0038FF"/>
</svg>
