<svg width="36" height="36" viewBox="0 0 36 36" fill="none" xmlns="http://www.w3.org/2000/svg">
<path d="M35.25 18C35.25 18.3812 35.0985 18.7469 34.829 19.0165C34.5594 19.2861 34.1937 19.4375 33.8125 19.4375H19.4375V33.8125C19.4375 34.1937 19.2861 34.5594 19.0165 34.829C18.7469 35.0985 18.3812 35.25 18 35.25C17.6188 35.25 17.2531 35.0985 16.9835 34.829C16.714 34.5594 16.5625 34.1937 16.5625 33.8125V19.4375H2.1875C1.80625 19.4375 1.44062 19.2861 1.17103 19.0165C0.901451 18.7469 0.75 18.3812 0.75 18C0.75 17.6188 0.901451 17.2531 1.17103 16.9835C1.44062 16.714 1.80625 16.5625 2.1875 16.5625H16.5625V2.1875C16.5625 1.80625 16.714 1.44062 16.9835 1.17103C17.2531 0.901451 17.6188 0.75 18 0.75C18.3812 0.75 18.7469 0.901451 19.0165 1.17103C19.2861 1.44062 19.4375 1.80625 19.4375 2.1875V16.5625H33.8125C34.1937 16.5625 34.5594 16.714 34.829 16.9835C35.0985 17.2531 35.25 17.6188 35.25 18Z" fill="#585C7B"/>
</svg>
