<svg width="44" height="36" viewBox="0 0 44 36" fill="none" xmlns="http://www.w3.org/2000/svg">
<path d="M42.5625 32.375H39.6875V12.25C40.0687 12.25 40.4344 12.0985 40.704 11.829C40.9735 11.5594 41.125 11.1937 41.125 10.8125C41.125 10.4313 40.9735 10.0656 40.704 9.79603C40.4344 9.52645 40.0687 9.375 39.6875 9.375H31.0625V3.625C31.4437 3.625 31.8094 3.47355 32.079 3.20397C32.3486 2.93438 32.5 2.56875 32.5 2.1875C32.5 1.80625 32.3486 1.44062 32.079 1.17103C31.8094 0.901451 31.4437 0.75 31.0625 0.75H5.1875C4.80625 0.75 4.44062 0.901451 4.17103 1.17103C3.90145 1.44062 3.75 1.80625 3.75 2.1875C3.75 2.56875 3.90145 2.93438 4.17103 3.20397C4.44062 3.47355 4.80625 3.625 5.1875 3.625V32.375H2.3125C1.93125 32.375 1.56562 32.5264 1.29603 32.796C1.02645 33.0656 0.875 33.4313 0.875 33.8125C0.875 34.1937 1.02645 34.5594 1.29603 34.829C1.56562 35.0985 1.93125 35.25 2.3125 35.25H42.5625C42.9437 35.25 43.3094 35.0985 43.579 34.829C43.8485 34.5594 44 34.1937 44 33.8125C44 33.4313 43.8485 33.0656 43.579 32.796C43.3094 32.5264 42.9437 32.375 42.5625 32.375ZM36.8125 12.25V32.375H31.0625V12.25H36.8125ZM8.0625 3.625H28.1875V32.375H23.875V23.75C23.875 23.3688 23.7236 23.0031 23.454 22.7335C23.1844 22.4639 22.8187 22.3125 22.4375 22.3125H13.8125C13.4313 22.3125 13.0656 22.4639 12.796 22.7335C12.5265 23.0031 12.375 23.3688 12.375 23.75V32.375H8.0625V3.625ZM21 32.375H15.25V25.1875H21V32.375ZM10.9375 9.375C10.9375 8.99375 11.089 8.62812 11.3585 8.35853C11.6281 8.08895 11.9938 7.9375 12.375 7.9375H15.25C15.6312 7.9375 15.9969 8.08895 16.2665 8.35853C16.536 8.62812 16.6875 8.99375 16.6875 9.375C16.6875 9.75625 16.536 10.1219 16.2665 10.3915C15.9969 10.661 15.6312 10.8125 15.25 10.8125H12.375C11.9938 10.8125 11.6281 10.661 11.3585 10.3915C11.089 10.1219 10.9375 9.75625 10.9375 9.375ZM19.5625 9.375C19.5625 8.99375 19.714 8.62812 19.9835 8.35853C20.2531 8.08895 20.6188 7.9375 21 7.9375H23.875C24.2562 7.9375 24.6219 8.08895 24.8915 8.35853C25.1611 8.62812 25.3125 8.99375 25.3125 9.375C25.3125 9.75625 25.1611 10.1219 24.8915 10.3915C24.6219 10.661 24.2562 10.8125 23.875 10.8125H21C20.6188 10.8125 20.2531 10.661 19.9835 10.3915C19.714 10.1219 19.5625 9.75625 19.5625 9.375ZM10.9375 16.5625C10.9375 16.1813 11.089 15.8156 11.3585 15.546C11.6281 15.2765 11.9938 15.125 12.375 15.125H15.25C15.6312 15.125 15.9969 15.2765 16.2665 15.546C16.536 15.8156 16.6875 16.1813 16.6875 16.5625C16.6875 16.9437 16.536 17.3094 16.2665 17.579C15.9969 17.8485 15.6312 18 15.25 18H12.375C11.9938 18 11.6281 17.8485 11.3585 17.579C11.089 17.3094 10.9375 16.9437 10.9375 16.5625ZM19.5625 16.5625C19.5625 16.1813 19.714 15.8156 19.9835 15.546C20.2531 15.2765 20.6188 15.125 21 15.125H23.875C24.2562 15.125 24.6219 15.2765 24.8915 15.546C25.1611 15.8156 25.3125 16.1813 25.3125 16.5625C25.3125 16.9437 25.1611 17.3094 24.8915 17.579C24.6219 17.8485 24.2562 18 23.875 18H21C20.6188 18 20.2531 17.8485 19.9835 17.579C19.714 17.3094 19.5625 16.9437 19.5625 16.5625Z" fill="#0038FF"/>
</svg>
