<svg width="38" height="32" viewBox="0 0 38 32" fill="none" xmlns="http://www.w3.org/2000/svg">
<path d="M34.8125 0.1875H3.1875C2.425 0.1875 1.69373 0.490401 1.15457 1.02957C0.615401 1.56873 0.3125 2.3 0.3125 3.0625V28.9375C0.3125 29.7 0.615401 30.4313 1.15457 30.9704C1.69373 31.5096 2.425 31.8125 3.1875 31.8125H34.8125C35.575 31.8125 36.3063 31.5096 36.8454 30.9704C37.3846 30.4313 37.6875 29.7 37.6875 28.9375V3.0625C37.6875 2.3 37.3846 1.56873 36.8454 1.02957C36.3063 0.490401 35.575 0.1875 34.8125 0.1875ZM34.8125 3.0625V8.8125H3.1875V3.0625H34.8125ZM34.8125 28.9375H3.1875V11.6875H34.8125V28.9375Z" fill="#0038FF"/>
</svg>
